<svg xmlns="http://www.w3.org/2000/svg" viewBox="0 0 320 320" width="320" height="320" role="img" aria-label="Illustration of a grizzly bear pumpkin">
  <ellipse cx="160" cy="286" rx="104" ry="20" fill="#000" opacity="0.16"/>
  <path d="M153 104c-4-20 1-35 12-42 10-6 21-5 24 2 3 7-1 12-8 15-8 4-11 12-9 25z" fill="#6f4a22"/>
  <path d="M153 104c-3-15 0-27 7-34-6 14-7 24-4 34z" fill="#57381a"/>
  <ellipse cx="92" cy="196" rx="68" ry="82" fill="#b08d4e"/>
  <ellipse cx="228" cy="196" rx="68" ry="82" fill="#b08d4e"/>
  <ellipse cx="118" cy="193" rx="55" ry="86" fill="#c8a468"/>
  <ellipse cx="202" cy="193" rx="55" ry="86" fill="#c8a468"/>
  <ellipse cx="160" cy="191" rx="57" ry="89" fill="#dcbc86"/>
  <path d="M130 111c-7 56 -7 104 0 160" stroke="#b08d4e" stroke-width="3" fill="none" opacity="0.35"/>
  <path d="M190 111c-7 56 -7 104 0 160" stroke="#b08d4e" stroke-width="3" fill="none" opacity="0.35"/>
  <circle cx="112" cy="231" r="7" fill="#d8b57e"/>
  <circle cx="115" cy="234" r="4" fill="#d8b57e"/>
  <circle cx="114" cy="183" r="8" fill="#d8b57e"/>
  <circle cx="118" cy="186" r="4" fill="#d8b57e"/>
  <circle cx="115" cy="218" r="9" fill="#d8b57e"/>
  <circle cx="120" cy="221" r="5" fill="#d8b57e"/>
  <circle cx="116" cy="240" r="5" fill="#d8b57e"/>
  <circle cx="121" cy="218" r="6" fill="#d8b57e"/>
  <circle cx="125" cy="220" r="4" fill="#d8b57e"/>
  <circle cx="118" cy="194" r="6" fill="#d8b57e"/>
  <circle cx="117" cy="221" r="5" fill="#d8b57e"/>
  <circle cx="111" cy="174" r="7" fill="#d8b57e"/>
  <circle cx="115" cy="176" r="4" fill="#d8b57e"/>
  <circle cx="104" cy="208" r="7" fill="#d8b57e"/>
  <circle cx="107" cy="211" r="4" fill="#d8b57e"/>
  <circle cx="147" cy="163" r="4" fill="#d8b57e"/>
  <circle cx="132" cy="248" r="4" fill="#d8b57e"/>
  <circle cx="133" cy="224" r="8" fill="#d8b57e"/>
  <circle cx="137" cy="227" r="5" fill="#d8b57e"/>
  <circle cx="140" cy="240" r="6" fill="#d8b57e"/>
  <circle cx="143" cy="242" r="3" fill="#d8b57e"/>
  <circle cx="146" cy="231" r="5" fill="#d8b57e"/>
  <circle cx="149" cy="251" r="6" fill="#d8b57e"/>
  <circle cx="149" cy="173" r="6" fill="#d8b57e"/>
  <circle cx="135" cy="247" r="8" fill="#d8b57e"/>
  <circle cx="139" cy="251" r="5" fill="#d8b57e"/>
  <circle cx="131" cy="150" r="6" fill="#d8b57e"/>
  <circle cx="176" cy="180" r="6" fill="#d8b57e"/>
  <circle cx="168" cy="172" r="7" fill="#d8b57e"/>
  <circle cx="171" cy="175" r="4" fill="#d8b57e"/>
  <circle cx="171" cy="200" r="8" fill="#d8b57e"/>
  <circle cx="175" cy="203" r="4" fill="#d8b57e"/>
  <circle cx="165" cy="183" r="7" fill="#d8b57e"/>
  <circle cx="168" cy="186" r="4" fill="#d8b57e"/>
  <circle cx="165" cy="212" r="5" fill="#d8b57e"/>
  <circle cx="166" cy="196" r="4" fill="#d8b57e"/>
  <circle cx="174" cy="220" r="8" fill="#d8b57e"/>
  <circle cx="178" cy="223" r="4" fill="#d8b57e"/>
  <circle cx="163" cy="171" r="6" fill="#d8b57e"/>
  <circle cx="166" cy="173" r="3" fill="#d8b57e"/>
  <circle cx="170" cy="222" r="8" fill="#d8b57e"/>
  <circle cx="174" cy="225" r="4" fill="#d8b57e"/>
  <circle cx="193" cy="247" r="5" fill="#d8b57e"/>
  <circle cx="207" cy="215" r="6" fill="#d8b57e"/>
  <circle cx="194" cy="248" r="8" fill="#d8b57e"/>
  <circle cx="198" cy="251" r="4" fill="#d8b57e"/>
  <circle cx="206" cy="192" r="6" fill="#d8b57e"/>
  <circle cx="209" cy="194" r="3" fill="#d8b57e"/>
  <circle cx="207" cy="229" r="7" fill="#d8b57e"/>
  <circle cx="210" cy="232" r="4" fill="#d8b57e"/>
  <circle cx="198" cy="233" r="7" fill="#d8b57e"/>
  <circle cx="201" cy="236" r="4" fill="#d8b57e"/>
  <circle cx="193" cy="170" r="5" fill="#d8b57e"/>
  <circle cx="202" cy="192" r="8" fill="#d8b57e"/>
  <circle cx="206" cy="195" r="4" fill="#d8b57e"/>
  <circle cx="193" cy="245" r="9" fill="#d8b57e"/>
  <circle cx="198" cy="249" r="5" fill="#d8b57e"/>
  <ellipse cx="134" cy="158" rx="13" ry="22" fill="#fff" opacity="0.14" transform="rotate(-16 134 158)"/>
</svg>
